<svg width="18" height="18" viewBox="0 0 18 18" fill="none" xmlns="http://www.w3.org/2000/svg">
<g clip-path="url(#clip0)">
<path fill-rule="evenodd" clip-rule="evenodd" d="M7.50001 -0.249978L7.45807 -0.249989C7.26776 -0.250065 7.10416 -0.25013 6.95594 -0.235531C5.53162 -0.095241 4.40474 1.03164 4.26445 2.45596C4.24985 2.60417 4.24992 2.76776 4.24999 2.95807V2.95809L4.25 3.00003H6.25C6.25 2.74406 6.25122 2.68857 6.25482 2.652C6.30158 2.17723 6.67721 1.8016 7.15198 1.75484C7.18855 1.75124 7.24404 1.75002 7.50001 1.75002H14.05C14.6266 1.75002 14.9988 1.7508 15.2822 1.77395C15.5538 1.79614 15.6545 1.83382 15.704 1.85902C15.8922 1.95489 16.0451 2.10787 16.141 2.29603C16.1662 2.34548 16.2039 2.44619 16.2261 2.71786C16.2492 3.00119 16.25 3.37347 16.25 3.95002V10.5C16.25 10.756 16.2488 10.8115 16.2452 10.848C16.1984 11.3228 15.8228 11.6984 15.348 11.7452C15.3115 11.7488 15.256 11.75 15 11.75V13.75L15.042 13.75H15.042C15.2323 13.7501 15.3958 13.7502 15.5441 13.7356C16.9684 13.5953 18.0953 12.4684 18.2356 11.0441C18.2502 10.8959 18.2501 10.7323 18.25 10.5421V10.542L18.25 10.5V3.95002V3.9115V3.91138C18.25 3.38427 18.25 2.92954 18.2194 2.55499C18.1871 2.15965 18.1158 1.76643 17.923 1.38805C17.6354 0.823564 17.1765 0.364622 16.612 0.0770023C16.2336 -0.115792 15.8404 -0.187108 15.445 -0.219409C15.0705 -0.250012 14.6157 -0.249997 14.0885 -0.249979L14.05 -0.249978H7.50001ZM3.95 4.25004L3.91146 4.25004C3.38431 4.25002 2.92955 4.25 2.55497 4.28061C2.15963 4.31291 1.76641 4.38422 1.38803 4.57702C0.823545 4.86464 0.364603 5.32358 0.0769831 5.88807C-0.115811 6.26645 -0.187127 6.65966 -0.219428 7.05501C-0.250031 7.42957 -0.250016 7.88432 -0.249999 8.41145V8.41149V8.45004V14.05V14.0886V14.0886C-0.250016 14.6158 -0.250031 15.0705 -0.219428 15.4451C-0.187127 15.8404 -0.115811 16.2336 0.0769831 16.612C0.364603 17.1765 0.823545 17.6354 1.38803 17.9231C1.76641 18.1159 2.15963 18.1872 2.55497 18.2195C2.92951 18.2501 3.38423 18.2501 3.91131 18.25H3.91144H3.95H9.55H9.58857H9.58869C10.1158 18.2501 10.5705 18.2501 10.945 18.2195C11.3404 18.1872 11.7336 18.1159 12.112 17.9231C12.6765 17.6354 13.1354 17.1765 13.423 16.612C13.6158 16.2336 13.6871 15.8404 13.7194 15.4451C13.75 15.0705 13.75 14.6158 13.75 14.0886V14.0886V14.05V8.45004V8.41147V8.41144C13.75 7.88431 13.75 7.42957 13.7194 7.05501C13.6871 6.65966 13.6158 6.26645 13.423 5.88807C13.1354 5.32358 12.6765 4.86464 12.112 4.57702C11.7336 4.38422 11.3404 4.31291 10.945 4.28061C10.5705 4.25 10.1157 4.25002 9.58855 4.25004L9.55 4.25004H3.95ZM2.29601 6.35903C2.34546 6.33384 2.44618 6.29616 2.71784 6.27396C3.00118 6.25081 3.37345 6.25004 3.95 6.25004H9.55C10.1266 6.25004 10.4988 6.25081 10.7822 6.27396C11.0538 6.29616 11.1545 6.33384 11.204 6.35903C11.3922 6.4549 11.5451 6.60788 11.641 6.79605C11.6662 6.84549 11.7039 6.94621 11.7261 7.21787C11.7492 7.50121 11.75 7.87348 11.75 8.45004V14.05C11.75 14.6266 11.7492 14.9989 11.7261 15.2822C11.7039 15.5539 11.6662 15.6546 11.641 15.704C11.5451 15.8922 11.3922 16.0452 11.204 16.141C11.1545 16.1662 11.0538 16.2039 10.7822 16.2261C10.4988 16.2493 10.1266 16.25 9.55 16.25H3.95C3.37345 16.25 3.00118 16.2493 2.71784 16.2261C2.44618 16.2039 2.34546 16.1662 2.29601 16.141C2.10785 16.0452 1.95487 15.8922 1.859 15.704C1.8338 15.6546 1.79613 15.5539 1.77393 15.2822C1.75078 14.9989 1.75 14.6266 1.75 14.05V8.45004C1.75 7.87348 1.75078 7.50121 1.77393 7.21787C1.79613 6.94621 1.8338 6.84549 1.859 6.79605C1.95487 6.60788 2.10785 6.4549 2.29601 6.35903Z" fill="white"/>
</g>
<defs>
<clipPath id="clip0">
<rect width="18" height="18" fill="white"/>
</clipPath>
</defs>
</svg>
