<?xml version="1.0" standalone="no"?>
<!DOCTYPE svg PUBLIC "-//W3C//DTD SVG 20010904//EN"
 "http://www.w3.org/TR/2001/REC-SVG-20010904/DTD/svg10.dtd">
<svg version="1.0" xmlns="http://www.w3.org/2000/svg"
 width="700.000000pt" height="700.000000pt" viewBox="0 0 700.000000 700.000000"
 preserveAspectRatio="xMidYMid meet">
<metadata>
Created by potrace 1.14, written by Peter Selinger 2001-2017
</metadata>
<g transform="translate(0.000000,700.000000) scale(0.100000,-0.100000)"
fill="#000000" stroke="none">
<path d="M3276 6990 c-1101 -77 -2082 -647 -2690 -1563 -317 -478 -507 -1011
-567 -1592 -16 -154 -16 -516 0 -670 109 -1061 670 -1992 1556 -2580 438 -291
926 -476 1451 -549 1268 -177 2521 352 3289 1388 369 498 597 1085 667 1711
17 155 17 595 -1 740 -56 473 -199 923 -417 1314 l-75 134 179 181 c99 100
188 197 198 216 42 82 11 206 -65 257 -51 35 -81 39 -415 67 -170 14 -311 28
-314 31 -3 3 -17 150 -32 327 -18 206 -33 336 -42 358 -23 55 -73 98 -134 116
-49 14 -59 14 -110 -1 -52 -15 -70 -30 -244 -201 l-188 -185 -133 75 c-396
220 -823 357 -1309 416 -120 15 -451 20 -604 10z m594 -1180 c248 -41 443
-105 675 -220 234 -117 214 -89 233 -313 l16 -188 -336 -336 -335 -335 -39 25
c-118 74 -273 130 -424 152 -188 29 -441 -8 -617 -90 -298 -138 -525 -406
-611 -724 -23 -87 -26 -114 -26 -281 -1 -172 1 -192 26 -283 108 -387 410
-687 788 -783 397 -102 775 0 1061 285 130 130 226 287 278 456 27 87 51 239
51 325 0 173 -57 389 -142 537 l-50 86 335 335 335 335 188 -16 c226 -19 198
1 314 -232 117 -236 187 -455 227 -715 24 -160 24 -500 0 -660 -136 -880 -733
-1600 -1562 -1883 -440 -150 -925 -167 -1364 -47 -314 86 -639 255 -882 459
-447 374 -735 885 -826 1461 -25 161 -25 519 0 680 118 751 573 1387 1243
1737 255 133 542 219 839 253 133 15 462 4 605 -20z"/>
</g>
</svg>
